<svg width="38" height="38" viewBox="0 0 38 38" fill="none" xmlns="http://www.w3.org/2000/svg">
<rect width="38" height="38" rx="19" fill="white"/>
<path d="M23.125 14.875H14.875V23.125H23.125V14.875Z" fill="white"/>
<path d="M19.6299 17.845L20.0079 18.385L20.6019 17.953V21.085H21.2499V16.981H20.7099L19.6299 17.845Z" fill="#1E88E5"/>
<path d="M18.6036 18.9044C18.838 18.6892 18.9835 18.3907 18.9835 18.061C18.9835 17.4059 18.4086 16.873 17.7021 16.873C17.1014 16.873 16.5876 17.2514 16.4534 17.7929L17.0747 17.9508C17.1366 17.7018 17.4002 17.521 17.7021 17.521C18.0554 17.521 18.343 17.7633 18.343 18.061C18.343 18.3588 18.0554 18.601 17.7021 18.601H17.3282V19.249H17.7021C18.1075 19.249 18.4495 19.5307 18.4495 19.864C18.4495 20.203 18.1247 20.479 17.7254 20.479C17.3646 20.479 17.0564 20.2503 17.0076 19.9473L16.375 20.0508C16.4732 20.6643 17.0538 21.127 17.725 21.127C18.4776 21.127 19.09 20.5604 19.09 19.864C19.09 19.4804 18.901 19.1362 18.6036 18.9044Z" fill="#1E88E5"/>
<path d="M22.75 25.75H15.25L14.875 24.25L15.25 22.75H22.75L23.125 24.25L22.75 25.75Z" fill="#FBC02D"/>
<path d="M24.25 23.125L25.75 22.75V15.25L24.25 14.875L22.75 15.25V22.75L24.25 23.125Z" fill="#4CAF50"/>
<path d="M22.75 15.25L23.125 13.75L22.75 12.25H13.375C12.7536 12.25 12.25 12.7536 12.25 13.375V22.75L13.75 23.125L15.25 22.75V15.25H22.75Z" fill="#1E88E5"/>
<path d="M22.75 22.75V25.75L25.75 22.75H22.75Z" fill="#E53935"/>
<path d="M24.625 12.25H22.75V15.25H25.75V13.375C25.75 12.7536 25.2464 12.25 24.625 12.25Z" fill="#1565C0"/>
<path d="M13.375 25.75H15.25V22.75H12.25V24.625C12.25 25.2464 12.7536 25.75 13.375 25.75Z" fill="#1565C0"/>
</svg>
