<svg width="38" height="38" viewBox="0 0 38 38" fill="none" xmlns="http://www.w3.org/2000/svg">
<rect width="38" height="38" rx="19" fill="white"/>
<g clip-path="url(#clip0_91_258)">
<path d="M10.2206 21.0741C10.1805 20.9034 10.3839 20.7958 10.5079 20.9198L17.0802 27.4921C17.2042 27.6161 17.0966 27.8195 16.9259 27.7794C13.6093 27.0014 10.9986 24.3907 10.2206 21.0741ZM10.0003 18.44C9.99716 18.491 10.0163 18.5408 10.0525 18.5769L19.4231 27.9475C19.4592 27.9837 19.509 28.0029 19.56 27.9997C19.9864 27.9731 20.4048 27.9169 20.8132 27.833C20.9508 27.8047 20.9986 27.6357 20.8993 27.5363L10.4637 17.1007C10.3643 17.0014 10.1953 17.0492 10.167 17.1868C10.0831 17.5952 10.0269 18.0136 10.0003 18.44ZM10.758 15.347C10.728 15.4143 10.7433 15.4929 10.7953 15.545L22.455 27.2046C22.5071 27.2567 22.5857 27.272 22.653 27.242C22.9745 27.0988 23.2861 26.9373 23.5864 26.7589C23.6858 26.6999 23.7011 26.5633 23.6194 26.4816L11.5184 14.3806C11.4367 14.2989 11.3001 14.3142 11.2411 14.4136C11.0626 14.7139 10.9012 15.0255 10.758 15.347ZM12.2786 13.2533C12.2119 13.1867 12.2078 13.0799 12.2706 13.0096C13.9203 11.1627 16.3201 10 18.9913 10C23.9667 10 28 14.0333 28 19.0087C28 21.6799 26.8373 24.0797 24.9904 25.7294C24.9202 25.7922 24.8133 25.788 24.7467 25.7214L12.2786 13.2533Z" fill="#222326"/>
</g>
<defs>
<clipPath id="clip0_91_258">
<rect width="18" height="18" fill="white" transform="translate(10 10)"/>
</clipPath>
</defs>
</svg>
