<svg width="38" height="38" viewBox="0 0 38 38" fill="none" xmlns="http://www.w3.org/2000/svg">
<rect width="38" height="38" rx="19" fill="white"/>
<path d="M24.625 15.2495V25.3745C24.625 25.7889 24.289 26.1245 23.875 26.1245H14.125C13.7106 26.1245 13.375 25.7889 13.375 25.3745V12.6245C13.375 12.2105 13.7106 11.8745 14.125 11.8745H21.25L22 14.4995L24.625 15.2495Z" fill="url(#paint0_linear_91_248)"/>
<path fill-rule="evenodd" clip-rule="evenodd" d="M16 16.7505V17.8751H22.3757V16.7505H16Z" fill="white"/>
<path fill-rule="evenodd" clip-rule="evenodd" d="M16 19.0005V20.1251H22.3757V19.0005H16Z" fill="white"/>
<path fill-rule="evenodd" clip-rule="evenodd" d="M16 21.2505V22.3751H20.5004V21.2505H16Z" fill="white"/>
<path d="M21.25 15.2495L21.2504 11.8745L24.625 15.2491L21.25 15.2495Z" fill="url(#paint1_linear_91_248)"/>
<defs>
<linearGradient id="paint0_linear_91_248" x1="9.6385" y1="11.1065" x2="21.1068" y2="22.5744" gradientUnits="userSpaceOnUse">
<stop stop-color="#55ADFD"/>
<stop offset="1" stop-color="#438FFD"/>
</linearGradient>
<linearGradient id="paint1_linear_91_248" x1="23.6957" y1="12.8038" x2="21.625" y2="14.8745" gradientUnits="userSpaceOnUse">
<stop stop-color="#427FDB"/>
<stop offset="1" stop-color="#0C52BB"/>
</linearGradient>
</defs>
</svg>
