<svg width="38" height="38" viewBox="0 0 38 38" fill="none" xmlns="http://www.w3.org/2000/svg">
<rect width="38" height="38" rx="19" fill="white"/>
<path d="M19.75 16.375H16.75C15.3002 16.375 14.125 15.1997 14.125 13.75C14.125 12.3003 15.3002 11.125 16.75 11.125H19.75V16.375Z" fill="#E64A19"/>
<path d="M19.375 21.625H16.75C15.3003 21.625 14.125 20.4497 14.125 19C14.125 17.5503 15.3003 16.375 16.75 16.375H19.375V21.625Z" fill="#7C4DFF"/>
<path d="M16.75 26.875C15.3003 26.875 14.125 25.6997 14.125 24.25C14.125 22.8003 15.3003 21.625 16.75 21.625H19.375V24.25C19.375 25.6997 18.1997 26.875 16.75 26.875Z" fill="#66BB6A"/>
<path d="M22 16.375H19.375V11.125H22C23.4497 11.125 24.625 12.3003 24.625 13.75C24.625 15.1997 23.4497 16.375 22 16.375Z" fill="#FF7043"/>
<path d="M22 21.625C23.4497 21.625 24.625 20.4497 24.625 19C24.625 17.5503 23.4497 16.375 22 16.375C20.5503 16.375 19.375 17.5503 19.375 19C19.375 20.4497 20.5503 21.625 22 21.625Z" fill="#29B6F6"/>
</svg>
