<svg width="72" height="72" viewBox="0 0 72 72" fill="none" xmlns="http://www.w3.org/2000/svg">
<path d="M36 6.75C19.8461 6.75 6.75 19.8461 6.75 36C6.75 49.8116 16.326 61.38 29.1994 64.4468C28.5334 64.2881 27.873 64.1104 27.225 63.9079V57.2062C27.225 57.2062 26.1281 57.5719 24.6656 57.5719C20.574 57.5719 18.8741 53.9212 18.45 52.0875C18.1924 50.9704 17.5196 49.9118 16.7974 49.2649C15.9345 48.4954 15.5306 48.4931 15.525 48.2299C15.5138 47.6775 16.2652 47.7 16.6219 47.7C18.45 47.7 19.836 49.6451 20.4795 50.6509C22.0736 53.1337 23.7847 53.55 24.6656 53.55C25.7625 53.55 26.7098 53.3857 27.3623 53.0708C27.6637 50.9468 28.6087 49.0545 30.15 47.7C23.2909 46.3286 18.45 42.3945 18.45 36C18.45 32.706 19.7719 29.6786 21.9746 27.234C21.7496 26.5961 21.375 25.3057 21.375 23.2031C21.375 21.8138 21.4717 20.1082 22.1062 18.45C22.1062 18.45 26.2778 18.4793 30.2119 22.2053C32.0276 21.6765 33.9705 21.375 36 21.375C38.0295 21.375 39.9724 21.6765 41.7881 22.2053C45.7223 18.4793 49.8937 18.45 49.8937 18.45C50.5316 20.1082 50.625 21.8138 50.625 23.2031C50.625 25.47 50.3235 26.7919 50.139 27.3623C52.2743 29.7844 53.55 32.7645 53.55 36C53.55 42.3945 48.7091 46.3286 41.85 47.7C43.6815 49.3088 44.775 51.6521 44.775 54.2812V63.9079C44.127 64.1115 43.4677 64.2881 42.8006 64.4468C55.674 61.38 65.25 49.8116 65.25 36C65.25 19.8461 52.1539 6.75 36 6.75ZM38.0396 65.1712C37.3657 65.2185 36.6863 65.25 36 65.25C36.6863 65.25 37.3646 65.2174 38.0396 65.1712ZM36 65.25C35.3137 65.25 34.6343 65.2185 33.9604 65.1712C34.6354 65.2174 35.3137 65.25 36 65.25ZM33.5115 65.1375C32.1424 65.0216 30.7991 64.8124 29.4908 64.5143C30.8003 64.8113 32.1424 65.0216 33.5115 65.1375Z" fill="white"/>
</svg>
