<svg width="38" height="38" viewBox="0 0 38 38" fill="none" xmlns="http://www.w3.org/2000/svg">
<rect width="38" height="38" rx="19" fill="white"/>
<path d="M26.875 16.075L25 17.1062L23.125 18.8875V25H25.75C26.3714 25 26.875 24.4963 26.875 23.875V16.075Z" fill="#4CAF50"/>
<path d="M11.125 16.075L12.4802 16.7162L14.875 18.8875V25H12.25C11.6286 25 11.125 24.4963 11.125 23.875V16.075Z" fill="#1E88E5"/>
<path d="M23.125 14.2L19 17.2937L14.875 14.2L14.5 16.375L14.875 18.8875L19 21.9812L23.125 18.8875L23.5 16.375L23.125 14.2Z" fill="#E53935"/>
<path d="M11.125 14.6118V16.075L14.875 18.8875V14.2L13.7035 13.3221C13.4245 13.1129 13.0855 13 12.7367 13C11.8465 13 11.125 13.7215 11.125 14.6118Z" fill="#C62828"/>
<path d="M26.875 14.6118V16.075L23.125 18.8875V14.2L24.2965 13.3221C24.5755 13.1129 24.9145 13 25.2632 13C26.1535 13 26.875 13.7215 26.875 14.6118Z" fill="#FBC02D"/>
</svg>
