<svg width="72" height="72" viewBox="0 0 72 72" fill="none" xmlns="http://www.w3.org/2000/svg">
<g clip-path="url(#clip0_611_342)">
<path d="M71.1425 36.6736C71.1425 33.7238 70.9031 31.5712 70.3851 29.3389H36.7012V42.6529H56.4729C56.0744 45.9616 53.9218 50.9444 49.1382 54.2927L49.0712 54.7384L59.7214 62.989L60.4592 63.0627C67.2358 56.8041 71.1425 47.5958 71.1425 36.6736Z" fill="#4285F4"/>
<path d="M36.701 71.7527C46.3875 71.7527 54.5193 68.5635 60.4591 63.0627L49.138 54.2927C46.1085 56.4054 42.0425 57.8803 36.701 57.8803C27.2138 57.8803 19.1616 51.6221 16.2912 42.9719L15.8705 43.0077L4.79619 51.5781L4.65137 51.9807C10.551 63.7002 22.6692 71.7527 36.701 71.7527Z" fill="#34A853"/>
<path d="M16.2908 42.9719C15.5334 40.7396 15.0951 38.3477 15.0951 35.8763C15.0951 33.4047 15.5334 31.013 16.2509 28.7808L16.2308 28.3053L5.01781 19.5972L4.65094 19.7717C2.21942 24.635 0.824219 30.0963 0.824219 35.8763C0.824219 41.6564 2.21942 47.1174 4.65094 51.9807L16.2908 42.9719Z" fill="#FBBC05"/>
<path d="M36.701 13.8721C43.4377 13.8721 47.9819 16.782 50.5731 19.2138L60.6981 9.32785C54.4798 3.54779 46.3875 0 36.701 0C22.6692 0 10.551 8.05218 4.65137 19.7717L16.2513 28.7808C19.1616 20.1306 27.2137 13.8721 36.701 13.8721Z" fill="#EB4335"/>
</g>
<defs>
<clipPath id="clip0_611_342">
<rect width="72" height="72" fill="white"/>
</clipPath>
</defs>
</svg>
