<svg width="18" height="18" viewBox="0 0 18 18" fill="none" xmlns="http://www.w3.org/2000/svg">
<path d="M13.5 1.125H4.5C2.63604 1.125 1.125 2.63604 1.125 4.5V13.5C1.125 15.364 2.63604 16.875 4.5 16.875H13.5C15.364 16.875 16.875 15.364 16.875 13.5V4.5C16.875 2.63604 15.364 1.125 13.5 1.125Z" fill="url(#paint0_radial_232_703)"/>
<path d="M13.5 1.125H4.5C2.63604 1.125 1.125 2.63604 1.125 4.5V13.5C1.125 15.364 2.63604 16.875 4.5 16.875H13.5C15.364 16.875 16.875 15.364 16.875 13.5V4.5C16.875 2.63604 15.364 1.125 13.5 1.125Z" fill="url(#paint1_radial_232_703)"/>
<path d="M13.5 1.125H4.5C2.63604 1.125 1.125 2.63604 1.125 4.5V13.5C1.125 15.364 2.63604 16.875 4.5 16.875H13.5C15.364 16.875 16.875 15.364 16.875 13.5V4.5C16.875 2.63604 15.364 1.125 13.5 1.125Z" fill="url(#paint2_radial_232_703)"/>
<path d="M12.9375 5.90625C12.9375 6.37223 12.5597 6.75 12.0938 6.75C11.6278 6.75 11.25 6.37223 11.25 5.90625C11.25 5.44026 11.6278 5.0625 12.0938 5.0625C12.5597 5.0625 12.9375 5.44026 12.9375 5.90625Z" fill="white"/>
<path fill-rule="evenodd" clip-rule="evenodd" d="M9 11.8125C10.5533 11.8125 11.8125 10.5533 11.8125 9C11.8125 7.44671 10.5533 6.1875 9 6.1875C7.44671 6.1875 6.1875 7.44671 6.1875 9C6.1875 10.5533 7.44671 11.8125 9 11.8125ZM9 10.6875C9.93201 10.6875 10.6875 9.93201 10.6875 9C10.6875 8.06799 9.93201 7.3125 9 7.3125C8.06799 7.3125 7.3125 8.06799 7.3125 9C7.3125 9.93201 8.06799 10.6875 9 10.6875Z" fill="white"/>
<path fill-rule="evenodd" clip-rule="evenodd" d="M3.375 8.775C3.375 6.88483 3.375 5.93972 3.74285 5.21778C4.06643 4.58273 4.58273 4.06643 5.21778 3.74285C5.93972 3.375 6.88483 3.375 8.775 3.375H9.225C11.1152 3.375 12.0603 3.375 12.7822 3.74285C13.4173 4.06643 13.9336 4.58273 14.2571 5.21778C14.625 5.93972 14.625 6.88483 14.625 8.775V9.225C14.625 11.1152 14.625 12.0603 14.2571 12.7822C13.9336 13.4173 13.4173 13.9336 12.7822 14.2571C12.0603 14.625 11.1152 14.625 9.225 14.625H8.775C6.88483 14.625 5.93972 14.625 5.21778 14.2571C4.58273 13.9336 4.06643 13.4173 3.74285 12.7822C3.375 12.0603 3.375 11.1152 3.375 9.225V8.775ZM8.775 4.5H9.225C10.1887 4.5 10.8437 4.50088 11.3501 4.54224C11.8433 4.58254 12.0955 4.65558 12.2715 4.74523C12.6948 4.96095 13.039 5.30516 13.2547 5.7285C13.3444 5.90445 13.4175 6.15667 13.4578 6.64993C13.4991 7.15629 13.5 7.81133 13.5 8.775V9.225C13.5 10.1887 13.4991 10.8437 13.4578 11.3501C13.4175 11.8433 13.3444 12.0955 13.2547 12.2715C13.039 12.6948 12.6948 13.039 12.2715 13.2547C12.0955 13.3444 11.8433 13.4175 11.3501 13.4578C10.8437 13.4991 10.1887 13.5 9.225 13.5H8.775C7.81133 13.5 7.15629 13.4991 6.64993 13.4578C6.15667 13.4175 5.90445 13.3444 5.7285 13.2547C5.30516 13.039 4.96095 12.6948 4.74523 12.2715C4.65558 12.0955 4.58254 11.8433 4.54224 11.3501C4.50088 10.8437 4.5 10.1887 4.5 9.225V8.775C4.5 7.81133 4.50088 7.15629 4.54224 6.64993C4.58254 6.15667 4.65558 5.90445 4.74523 5.7285C4.96095 5.30516 5.30516 4.96095 5.7285 4.74523C5.90445 4.65558 6.15667 4.58254 6.64993 4.54224C7.15629 4.50088 7.81133 4.5 8.775 4.5Z" fill="white"/>
<defs>
<radialGradient id="paint0_radial_232_703" cx="0" cy="0" r="1" gradientUnits="userSpaceOnUse" gradientTransform="translate(6.75 12.9375) rotate(-55.3758) scale(14.3548)">
<stop stop-color="#B13589"/>
<stop offset="0.79309" stop-color="#C62F94"/>
<stop offset="1" stop-color="#8A3AC8"/>
</radialGradient>
<radialGradient id="paint1_radial_232_703" cx="0" cy="0" r="1" gradientUnits="userSpaceOnUse" gradientTransform="translate(6.1875 17.4375) rotate(-65.1363) scale(12.7092)">
<stop stop-color="#E0E8B7"/>
<stop offset="0.444662" stop-color="#FB8A2E"/>
<stop offset="0.71474" stop-color="#E2425C"/>
<stop offset="1" stop-color="#E2425C" stop-opacity="0"/>
</radialGradient>
<radialGradient id="paint2_radial_232_703" cx="0" cy="0" r="1" gradientUnits="userSpaceOnUse" gradientTransform="translate(0.28125 1.6875) rotate(-8.1301) scale(21.8761 4.67908)">
<stop offset="0.156701" stop-color="#406ADC"/>
<stop offset="0.467799" stop-color="#6A45BE"/>
<stop offset="1" stop-color="#6A45BE" stop-opacity="0"/>
</radialGradient>
</defs>
</svg>
