<svg width="300" height="300" viewBox="0 0 300 300" fill="none" xmlns="http://www.w3.org/2000/svg">
<g clip-path="url(#clip0_341_2)">
<mask id="mask0_341_2" style="mask-type:luminance" maskUnits="userSpaceOnUse" x="0" y="0" width="300" height="300">
<path d="M300 0H0V300H300V0Z" fill="white"/>
</mask>
<g mask="url(#mask0_341_2)">
<path d="M212.75 266.125L169.25 244.375C157.125 238.375 143 238.375 130.875 244.375L87.3745 266.125C49.9995 284.75 10.6245 244.625 30.1245 207.75L40.3745 188.5C41.7495 185.875 43.9995 183.75 46.7495 182.5L204.749 111.25C211.249 108.375 218.875 111 222.125 117.25L269.75 207.75C289.25 244.625 250 284.75 212.75 266.125Z" fill="white"/>
<path d="M195.004 96.125L91.5036 142.75C79.8786 148 68.1286 135.5 74.1286 124.25L112.129 52.125C128.254 21.5 172.004 21.5 188.129 52.125L201.504 77.625C205.004 84.5 202.004 93 195.004 96.125Z" fill="#36B460"/>
</g>
</g>
<defs>
<clipPath id="clip0_341_2">
<rect width="300" height="300" fill="white"/>
</clipPath>
</defs>
</svg>
