<svg width="38" height="38" viewBox="0 0 38 38" fill="none" xmlns="http://www.w3.org/2000/svg">
<rect width="38" height="38" rx="19" fill="white"/>
<path d="M14.5 16V22H20.5V16H14.5Z" fill="white"/>
<path d="M11.125 16.375V21.625L13 22L14.875 21.625V16.375L13 16L11.125 16.375Z" fill="#1E88E5"/>
<path d="M23.875 19V24.25C23.875 24.8714 23.3714 25.375 22.75 25.375H14.875L14.5 23.5L14.875 21.625H20.125V19L22 18.625L23.875 19Z" fill="#4CAF50"/>
<path d="M23.875 13.75V19H20.125V16.375H14.875L14.5 14.5L14.875 12.625H22.75C23.3714 12.625 23.875 13.1286 23.875 13.75Z" fill="#FBC02D"/>
<path d="M14.875 21.625V25.375H12.25C11.6286 25.375 11.125 24.8714 11.125 24.25V21.625H14.875Z" fill="#1565C0"/>
<path d="M14.875 12.625V16.375H11.125L14.875 12.625Z" fill="#E53935"/>
<path d="M24.25 19L23.875 22.1688L20.125 19L23.875 15.8313L24.25 19Z" fill="#2E7D32"/>
<path d="M27.25 13.7914V24.2089C27.25 24.5239 26.8825 24.7001 26.6387 24.5014L23.875 22.1689V15.8314L26.6387 13.4989C26.8825 13.3001 27.25 13.4764 27.25 13.7914Z" fill="#4CAF50"/>
</svg>
