<svg width="38" height="38" viewBox="0 0 38 38" fill="none" xmlns="http://www.w3.org/2000/svg">
<rect width="38" height="38" rx="19" fill="white"/>
<path d="M21.818 11.125C21.6298 11.1245 21.4103 11.1378 21.1407 11.1607L12.361 11.804C11.6528 11.8647 11.4062 12.3244 11.4062 12.8751V22.4294C11.4062 22.8583 11.5599 23.2251 11.9297 23.7153L13.9935 26.3795C14.3324 26.8082 14.6408 26.9002 15.2883 26.8695L25.4847 26.2565C26.347 26.196 26.5938 25.7977 26.5938 25.1243V14.3759C26.5938 14.0083 26.4392 13.9168 25.9769 13.5799L23.1743 11.6199C22.6661 11.2529 22.3827 11.1266 21.818 11.125ZM21.6362 11.9655C22.1917 11.9745 22.5084 12.1877 22.754 12.3775L24.2191 13.4316C24.2812 13.4625 24.4371 13.648 24.2498 13.648L15.4278 14.1754C14.4921 14.2378 14.3049 14.2683 13.8068 13.8656L12.5911 12.9043C12.4668 12.7799 12.5292 12.6251 12.8405 12.5944L21.3829 11.9748C21.4725 11.9671 21.5568 11.9642 21.6362 11.9655ZM25.0952 14.784C25.3513 14.8098 25.4688 15.018 25.4688 15.3657V24.4295C25.4688 24.8277 25.4067 25.1651 24.8535 25.1952L15.2987 25.7467C14.7455 25.7768 14.5 25.5931 14.5 25.1029V15.9788C14.5 15.5808 14.6229 15.3961 14.9916 15.3657L24.9771 14.7846C25.0194 14.7807 25.0586 14.7803 25.0952 14.784ZM24.0625 16.3281L22.0938 16.4688C21.6322 16.5239 21.3906 16.75 21.3906 17.0313L22.2344 17.1719V21.3906L19 16.6094L16.8066 16.8027C16.3737 16.8567 16.2223 17.2305 16.2842 17.5059L17.0312 17.5938V23.5L16.75 23.6406C16.1875 23.7813 16.3281 24.0625 16.3281 24.2031L18.5781 24.0625C19.2812 23.9219 19.2812 23.5 19.2812 23.5L18.1562 23.2188V18.7188L21.2319 23.4918C21.6 23.9499 21.7425 24.2031 22.2344 24.2031C22.6562 24.2031 23.0781 24.0625 23.3594 23.7813V17.0313L23.751 16.956C24.0624 16.8908 24.2031 16.6094 24.0625 16.3281Z" fill="black"/>
</svg>
