<svg width="25" height="25" viewBox="0 0 25 25" fill="none" xmlns="http://www.w3.org/2000/svg">
<path d="M17.1862 4.16659C17.1862 3.01606 16.2534 2.08325 15.1029 2.08325C13.9523 2.08325 13.0195 3.01606 13.0195 4.16659C13.0195 4.81971 13.0195 9.24002 13.0195 9.89575C13.0195 11.0463 13.9523 11.9791 15.1029 11.9791C16.2534 11.9791 17.1862 11.0463 17.1862 9.89575C17.1862 9.24002 17.1862 4.81971 17.1862 4.16659Z" fill="#33D375"/>
<path d="M22.3971 9.89596C22.3971 11.0465 21.4643 11.9793 20.3138 11.9793C19.6914 11.9793 18.2305 11.9793 18.2305 11.9793C18.2305 11.9793 18.2305 10.4241 18.2305 9.89596C18.2305 8.74543 19.1633 7.81262 20.3138 7.81262C21.4643 7.81262 22.3971 8.74543 22.3971 9.89596Z" fill="#33D375"/>
<path d="M4.16829 7.29138C3.01777 7.29138 2.08496 8.22419 2.08496 9.37472C2.08496 10.5252 3.01777 11.458 4.16829 11.458C4.82142 11.458 9.24173 11.458 9.89746 11.458C11.048 11.458 11.9808 10.5252 11.9808 9.37472C11.9808 8.22419 11.048 7.29138 9.89746 7.29138C9.24173 7.29138 4.82142 7.29138 4.16829 7.29138Z" fill="#40C4FF"/>
<path d="M9.89681 2.08325C11.0473 2.08325 11.9801 3.01606 11.9801 4.16659C11.9801 4.78898 11.9801 6.24992 11.9801 6.24992C11.9801 6.24992 10.4249 6.24992 9.89681 6.24992C8.74629 6.24992 7.81348 5.31711 7.81348 4.16659C7.81348 3.01606 8.74629 2.08325 9.89681 2.08325Z" fill="#40C4FF"/>
<path d="M7.29395 20.3156C7.29395 21.4645 8.22676 22.3958 9.37728 22.3958C10.5278 22.3958 11.4606 21.4645 11.4606 20.3156C11.4606 19.6635 11.4606 15.2494 11.4606 14.5947C11.4606 13.4458 10.5278 12.5145 9.37728 12.5145C8.22676 12.5145 7.29395 13.4458 7.29395 14.5947C7.29395 15.2494 7.29395 19.6635 7.29395 20.3156Z" fill="#E91E63"/>
<path d="M2.08496 14.5947C2.08496 13.4458 3.01777 12.5145 4.16829 12.5145C4.79069 12.5145 6.25163 12.5145 6.25163 12.5145C6.25163 12.5145 6.25163 14.0671 6.25163 14.5947C6.25163 15.7437 5.31882 16.6749 4.16829 16.6749C3.01777 16.6749 2.08496 15.7437 2.08496 14.5947Z" fill="#E91E63"/>
<path d="M20.3105 17.1877C21.4611 17.1877 22.3939 16.2549 22.3939 15.1043C22.3939 13.9538 21.4611 13.021 20.3105 13.021C19.6574 13.021 15.2371 13.021 14.5814 13.021C13.4309 13.021 12.498 13.9538 12.498 15.1043C12.498 16.2549 13.4309 17.1877 14.5814 17.1877C15.2366 17.1877 19.6574 17.1877 20.3105 17.1877Z" fill="#FFC107"/>
<path d="M14.5814 22.3958C13.4309 22.3958 12.498 21.463 12.498 20.3125C12.498 19.6901 12.498 18.2291 12.498 18.2291C12.498 18.2291 14.0533 18.2291 14.5814 18.2291C15.7319 18.2291 16.6647 19.1619 16.6647 20.3125C16.6647 21.463 15.7319 22.3958 14.5814 22.3958Z" fill="#FFC107"/>
</svg>
