<svg width="38" height="38" viewBox="0 0 38 38" fill="none" xmlns="http://www.w3.org/2000/svg">
<rect width="38" height="38" rx="19" fill="white"/>
<path d="M22.375 13C22.375 12.1716 21.7034 11.5 20.875 11.5C20.0466 11.5 19.375 12.1716 19.375 13C19.375 13.4703 19.375 16.6529 19.375 17.125C19.375 17.9534 20.0466 18.625 20.875 18.625C21.7034 18.625 22.375 17.9534 22.375 17.125C22.375 16.6529 22.375 13.4703 22.375 13Z" fill="#33D375"/>
<path d="M26.125 17.125C26.125 17.9534 25.4534 18.625 24.625 18.625C24.1769 18.625 23.125 18.625 23.125 18.625C23.125 18.625 23.125 17.5052 23.125 17.125C23.125 16.2966 23.7966 15.625 24.625 15.625C25.4534 15.625 26.125 16.2966 26.125 17.125Z" fill="#33D375"/>
<path d="M13 15.25C12.1716 15.25 11.5 15.9216 11.5 16.75C11.5 17.5784 12.1716 18.25 13 18.25C13.4703 18.25 16.6529 18.25 17.125 18.25C17.9534 18.25 18.625 17.5784 18.625 16.75C18.625 15.9216 17.9534 15.25 17.125 15.25C16.6529 15.25 13.4703 15.25 13 15.25Z" fill="#40C4FF"/>
<path d="M17.125 11.5C17.9534 11.5 18.625 12.1716 18.625 13C18.625 13.4481 18.625 14.5 18.625 14.5C18.625 14.5 17.5052 14.5 17.125 14.5C16.2966 14.5 15.625 13.8284 15.625 13C15.625 12.1716 16.2966 11.5 17.125 11.5Z" fill="#40C4FF"/>
<path d="M15.25 24.6272C15.25 25.4545 15.9216 26.125 16.75 26.125C17.5784 26.125 18.25 25.4545 18.25 24.6272C18.25 24.1577 18.25 20.9796 18.25 20.5082C18.25 19.681 17.5784 19.0105 16.75 19.0105C15.9216 19.0105 15.25 19.681 15.25 20.5082C15.25 20.9796 15.25 24.1577 15.25 24.6272Z" fill="#E91E63"/>
<path d="M11.5 20.5082C11.5 19.681 12.1716 19.0105 13 19.0105C13.4481 19.0105 14.5 19.0105 14.5 19.0105C14.5 19.0105 14.5 20.1284 14.5 20.5082C14.5 21.3355 13.8284 22.006 13 22.006C12.1716 22.006 11.5 21.3355 11.5 20.5082Z" fill="#E91E63"/>
<path d="M24.625 22.375C25.4534 22.375 26.125 21.7034 26.125 20.875C26.125 20.0466 25.4534 19.375 24.625 19.375C24.1547 19.375 20.9721 19.375 20.5 19.375C19.6716 19.375 19 20.0466 19 20.875C19 21.7034 19.6716 22.375 20.5 22.375C20.9718 22.375 24.1547 22.375 24.625 22.375Z" fill="#FFC107"/>
<path d="M20.5 26.125C19.6716 26.125 19 25.4534 19 24.625C19 24.1769 19 23.125 19 23.125C19 23.125 20.1198 23.125 20.5 23.125C21.3284 23.125 22 23.7966 22 24.625C22 25.4534 21.3284 26.125 20.5 26.125Z" fill="#FFC107"/>
</svg>
